<?xml version="1.0" encoding="UTF-8" standalone="no"?>
<svg width="15px" height="14px" viewBox="0 0 15 14" version="1.1" xmlns="http://www.w3.org/2000/svg" xmlns:xlink="http://www.w3.org/1999/xlink">
    <!-- Generator: Sketch 3.8.3 (29802) - http://www.bohemiancoding.com/sketch -->
    <title>Shape</title>
    <desc>Created with Sketch.</desc>
    <defs></defs>
    <g id="Symbols" stroke="none" stroke-width="1" fill="none" fill-rule="evenodd">
        <g id="Main-Nav-login" transform="translate(-1234.000000, -11.000000)" fill="#2B2B2B">
            <g id="welcome">
                <g transform="translate(1152.000000, 0.000000)">
                    <path d="M96.9860261,15.7369375 L96.3612137,18.8934398 C96.2878914,19.2638584 95.9386585,19.5329829 95.531165,19.5329829 L87.7841538,19.5329829 L88.0324237,20.7294778 L95.4090163,20.7276572 C95.699823,20.7276572 95.9358448,20.963348 95.9358448,21.2541547 C95.9358448,21.5449614 95.700154,21.7809832 95.4093473,21.7809832 L87.6179786,21.7829694 C87.6156614,21.7829694 87.6135097,21.7823074 87.6113581,21.7823074 C87.3639158,21.7859486 87.140473,21.614477 87.0883363,21.3632279 L85.2726564,12.6137033 L83.2985804,12.0320899 C83.0195252,11.9498298 82.8599704,11.6570369 82.9422305,11.3779817 C83.0244906,11.0989264 83.3172834,10.9393717 83.5963387,11.0216317 L85.8489734,11.6855052 C85.9251095,11.708015 85.9913148,11.7470761 86.0470927,11.7962335 C86.1434214,11.8703834 86.2162472,11.9763119 86.2428949,12.1047502 L86.6234097,13.9386365 C86.6725672,13.9351607 86.7223866,13.9343331 86.7735302,13.939133 L96.2407201,14.8209874 C96.7309702,14.8665035 97.0747412,15.2890587 96.9860261,15.7369375 L96.9860261,15.7369375 Z M88.9722076,22.360445 C88.5074466,22.360445 88.130573,22.7373186 88.130573,23.2020796 C88.130573,23.6668407 88.5074466,24.0437143 88.9722076,24.0437143 C89.4369687,24.0437143 89.8138423,23.6668407 89.8138423,23.2020796 C89.8136768,22.737153 89.4369687,22.360445 88.9722076,22.360445 L88.9722076,22.360445 Z M93.9748443,22.360445 C93.5100832,22.360445 93.1332097,22.7373186 93.1332097,23.2020796 C93.1332097,23.6668407 93.5100832,24.0437143 93.9748443,24.0437143 C94.4396054,24.0437143 94.816479,23.6668407 94.816479,23.2020796 C94.816479,22.737153 94.4396054,22.360445 93.9748443,22.360445 L93.9748443,22.360445 Z" id="Shape"></path>
                </g>
            </g>
        </g>
    </g>
</svg>