<?xml version="1.0" encoding="UTF-8" standalone="no"?>
<svg width="49px" height="63px" viewBox="0 0 49 63" version="1.1" xmlns="http://www.w3.org/2000/svg" xmlns:xlink="http://www.w3.org/1999/xlink">
    <!-- Generator: Sketch 3.8.3 (29802) - http://www.bohemiancoding.com/sketch -->
    <title>icon bank</title>
    <desc>Created with Sketch.</desc>
    <defs></defs>
    <g id="Membership" stroke="none" stroke-width="1" fill="none" fill-rule="evenodd">
        <g transform="translate(-146.000000, -1085.000000)" id="Contents" fill="#2B2B2B">
            <g transform="translate(100.000000, 263.000000)">
                <g id="Form-Copy-2" transform="translate(0.000000, 690.000000)">
                    <g id="icon-bank" transform="translate(46.000000, 132.000000)">
                        <path d="M49,0 L0,0 L0,63 L49,63 L49,0 L49,0 Z M42,56 L28,56 L28,43.75 L21,43.75 L21,56 L7,56 L7,7 L42,7 L42,56 L42,56 Z" id="Shape"></path>
                        <rect id="Rectangle-path" x="10.5" y="43.75" width="7" height="7"></rect>
                        <rect id="Rectangle-path" x="31.5" y="43.75" width="7" height="7"></rect>
                        <rect id="Rectangle-path" x="21" y="33.25" width="7" height="7"></rect>
                        <rect id="Rectangle-path" x="10.5" y="33.25" width="7" height="7"></rect>
                        <rect id="Rectangle-path" x="31.5" y="33.25" width="7" height="7"></rect>
                        <rect id="Rectangle-path" x="21" y="22.75" width="7" height="7"></rect>
                        <rect id="Rectangle-path" x="10.5" y="22.75" width="7" height="7"></rect>
                        <rect id="Rectangle-path" x="31.5" y="22.75" width="7" height="7"></rect>
                        <rect id="Rectangle-path" x="21" y="12.25" width="7" height="7"></rect>
                        <rect id="Rectangle-path" x="10.5" y="12.25" width="7" height="7"></rect>
                        <rect id="Rectangle-path" x="31.5" y="12.25" width="7" height="7"></rect>
                    </g>
                </g>
            </g>
        </g>
    </g>
</svg>