<?xml version="1.0" encoding="UTF-8" standalone="no"?>
<svg width="53px" height="53px" viewBox="0 0 53 53" version="1.1" xmlns="http://www.w3.org/2000/svg" xmlns:xlink="http://www.w3.org/1999/xlink">
    <!-- Generator: Sketch 3.8.3 (29802) - http://www.bohemiancoding.com/sketch -->
    <title>icon card</title>
    <desc>Created with Sketch.</desc>
    <defs></defs>
    <g id="Membership" stroke="none" stroke-width="1" fill="none" fill-rule="evenodd">
        <g transform="translate(-744.000000, -1086.000000)" id="Contents" fill="#2B2B2B">
            <g transform="translate(100.000000, 263.000000)">
                <g id="Form-Copy-2" transform="translate(0.000000, 690.000000)">
                    <g id="icon-card" transform="translate(644.000000, 133.000000)">
                        <path d="M48.6678529,20.1375 L45.3231317,34.14375 C45.1533808,34.8625 44.7007117,35.4375 44.1160142,35.79375 L44.1160142,27.78125 C44.1160142,26.05625 42.7014235,24.65 40.9661922,24.65 L2.9168446,24.65 C2.92313167,24.48125 2.94827995,24.3125 2.98600237,24.14375 L6.3747331,9.9625 L38.9354686,17.65 L48.6678529,20.1375 L48.6678529,20.1375 Z" id="Shape"></path>
                        <path d="M50.5979834,12.05625 L49.937841,14.8125 L9.55599051,5.28125 L7.60699881,4.81875 L7.61328588,4.78125 L8.26714116,2.05625 C8.60664294,0.6375 10.0400949,-0.24375 11.4672598,0.09375 L48.6238434,8.86875 C50.0510083,9.2125 50.9374852,10.6375 50.5979834,12.05625 L50.5979834,12.05625 Z" id="Shape"></path>
                        <path d="M40.9599051,25.625 L2.77224199,25.625 C1.5776987,25.625 0.603202847,26.59375 0.603202847,27.78125 L0.603202847,50.48125 C0.603202847,51.66875 1.5776987,52.6375 2.77224199,52.6375 L40.9661922,52.6375 C42.1607355,52.6375 43.1352313,51.66875 43.1352313,50.48125 L43.1352313,27.78125 C43.1352313,26.5875 42.1607355,25.625 40.9599051,25.625 L40.9599051,25.625 Z M30.982325,48.05 L4.76524318,48.05 L4.76524318,44.40625 L30.982325,44.40625 L30.982325,48.05 L30.982325,48.05 Z M39.5516014,37.99375 L30.9886121,37.99375 L30.9886121,29.64375 L39.5516014,29.64375 L39.5516014,37.99375 L39.5516014,37.99375 Z" id="Shape"></path>
                        <polygon id="Shape" points="9.55599051 5.28125 7.60699881 4.81875 7.61328588 4.78125"></polygon>
                        <path d="M52.1982206,16.1354167 L52.0470578,16.54375 C51.9540346,16.36875 51.8261276,16.2020833 51.6982206,16.04375 L52.1982206,16.1354167 L52.1982206,16.1354167 Z" id="Shape"></path>
                    </g>
                </g>
            </g>
        </g>
    </g>
</svg>